<?xml version="1.0" standalone="no"?>
<!DOCTYPE svg PUBLIC "-//W3C//DTD SVG 20010904//EN"
 "http://www.w3.org/TR/2001/REC-SVG-20010904/DTD/svg10.dtd">
<svg version="1.0" xmlns="http://www.w3.org/2000/svg"
 width="512.000000pt" height="512.000000pt" viewBox="0 0 512.000000 512.000000"
 preserveAspectRatio="xMidYMid meet">

<g transform="translate(0.000000,512.000000) scale(0.100000,-0.100000)"
fill="#000000" stroke="none">
<path d="M975 4956 c-22 -7 -54 -20 -70 -28 -51 -27 -120 -109 -144 -171 l-21
-58 0 -2139 0 -2139 22 -58 c27 -73 101 -153 171 -184 l52 -24 1575 0 1575 0
52 24 c70 31 144 111 172 184 l21 58 -2 2152 -3 2152 -23 50 c-30 65 -102 138
-166 167 l-51 23 -1560 2 c-1239 1 -1568 -1 -1600 -11z m2817 -446 c50 -14 97
-55 119 -105 17 -36 19 -72 19 -388 0 -291 -3 -354 -15 -384 -20 -48 -41 -71
-87 -94 -36 -18 -80 -19 -1268 -19 -1188 0 -1232 1 -1268 19 -46 23 -67 46
-87 94 -12 30 -15 93 -15 379 0 194 4 358 10 378 12 45 65 97 116 115 32 12
244 14 1239 15 796 0 1213 -4 1237 -10z m-1942 -1505 c54 -28 60 -54 60 -265
0 -287 5 -283 -315 -278 l-215 3 -32 33 -33 32 0 209 0 209 25 27 c14 15 34
31 45 35 11 5 114 9 228 9 167 1 214 -2 237 -14z m945 -1 c60 -28 67 -58 63
-279 l-3 -195 -33 -32 -32 -33 -230 0 -230 0 -32 33 -33 32 -3 195 c-5 298 -9
294 296 295 165 0 210 -3 237 -16z m977 -22 l33 -32 0 -210 0 -210 -33 -32
-32 -33 -231 0 -231 0 -34 37 -34 38 0 196 c0 293 -9 285 307 282 l223 -3 32
-33z m-1951 -872 c19 -6 46 -22 60 -36 23 -25 24 -30 27 -224 5 -297 12 -290
-298 -290 -308 0 -300 -7 -300 278 0 180 1 191 23 223 13 19 38 39 57 46 43
15 380 17 431 3z m959 -3 c19 -7 44 -27 57 -46 22 -32 23 -43 23 -223 0 -285
8 -278 -300 -278 -308 0 -300 -7 -300 278 0 180 1 191 23 223 13 19 38 39 57
46 47 16 393 16 440 0z m950 0 c19 -7 44 -27 57 -46 22 -32 23 -43 23 -218 0
-289 6 -283 -300 -283 -310 0 -303 -7 -298 290 3 195 3 199 27 224 14 15 39
30 55 35 47 14 395 12 436 -2z m-1880 -912 c56 -29 61 -55 58 -275 -4 -274 1
-270 -298 -270 -298 0 -300 2 -300 276 0 290 -7 284 298 284 171 0 219 -3 242
-15z m950 0 c54 -28 60 -54 60 -262 0 -282 -1 -283 -300 -283 -298 0 -294 -4
-298 267 -4 217 1 243 52 274 28 17 53 19 244 19 171 0 219 -3 242 -15z m951
-1 c51 -26 59 -62 59 -266 0 -276 -2 -278 -300 -278 -298 0 -294 -4 -298 267
-4 217 1 243 52 274 28 17 53 19 244 19 174 0 219 -3 243 -16z"/>
</g>
</svg>
